<svg xmlns="http://www.w3.org/2000/svg" width="600" height="400" viewBox="0 0 600 400">
  <rect width="600" height="400" fill="#F8EFF3"/>
  <rect x="2" y="2" width="596" height="396" fill="none" stroke="#803A5A" stroke-width="2" stroke-dasharray="8,4" rx="4" opacity="0.4"/>
  <ellipse cx="300" cy="140" rx="45" ry="55" fill="#803A5A" opacity="0.7"/>
  <rect x="285" y="185" width="30" height="25" rx="8" fill="#803A5A" opacity="0.7"/>
  <ellipse cx="300" cy="220" rx="80" ry="30" fill="#803A5A" opacity="0.6"/>
  <path d="M260 160 Q240 200 235 260 Q230 310 240 350" stroke="#803A5A" stroke-width="12" fill="none" stroke-linecap="round" opacity="0.6"/>
  <path d="M275 155 Q260 195 255 255 Q250 305 258 345" stroke="#803A5A" stroke-width="12" fill="none" stroke-linecap="round" opacity="0.6"/>
  <path d="M325 155 Q340 195 345 255 Q350 305 342 345" stroke="#803A5A" stroke-width="12" fill="none" stroke-linecap="round" opacity="0.6"/>
  <path d="M340 160 Q360 200 365 260 Q370 310 360 350" stroke="#803A5A" stroke-width="12" fill="none" stroke-linecap="round" opacity="0.6"/>
  <text x="300" y="310" text-anchor="middle" font-family="Arial,sans-serif" font-size="20" fill="#803A5A" font-weight="bold">APLICACOES</text>
  <text x="300" y="340" text-anchor="middle" font-family="Arial,sans-serif" font-size="12" fill="#803A5A" opacity="0.6">Substitua por foto real</text>
  <text x="300" y="360" text-anchor="middle" font-family="Arial,sans-serif" font-size="11" fill="#803A5A" opacity="0.4">600 x 400px</text>
</svg>