<svg xmlns="http://www.w3.org/2000/svg" width="600" height="400" viewBox="0 0 600 400">
  <rect width="600" height="400" fill="#F8EFF3"/>
  <rect x="2" y="2" width="596" height="396" fill="none" stroke="#803A5A" stroke-width="2" stroke-dasharray="8,4" rx="4" opacity="0.4"/>
  <ellipse cx="300" cy="140" rx="45" ry="55" fill="#803A5A" opacity="0.7"/>
  <rect x="285" y="185" width="30" height="25" rx="8" fill="#803A5A" opacity="0.7"/>
  <ellipse cx="300" cy="220" rx="80" ry="30" fill="#803A5A" opacity="0.6"/>
  <rect x="260" y="170" width="10" height="140" rx="5" fill="#803A5A" opacity="0.6"/>
  <rect x="275" y="165" width="10" height="150" rx="5" fill="#803A5A" opacity="0.6"/>
  <rect x="290" y="162" width="10" height="155" rx="5" fill="#803A5A" opacity="0.6"/>
  <rect x="300" y="160" width="10" height="158" rx="5" fill="#803A5A" opacity="0.6"/>
  <rect x="310" y="162" width="10" height="155" rx="5" fill="#803A5A" opacity="0.6"/>
  <rect x="325" y="165" width="10" height="150" rx="5" fill="#803A5A" opacity="0.6"/>
  <rect x="340" y="170" width="10" height="140" rx="5" fill="#803A5A" opacity="0.6"/>
  <text x="300" y="310" text-anchor="middle" font-family="Arial,sans-serif" font-size="20" fill="#803A5A" font-weight="bold">DREADS REMOVIVEIS</text>
  <text x="300" y="340" text-anchor="middle" font-family="Arial,sans-serif" font-size="12" fill="#803A5A" opacity="0.6">Substitua por foto real</text>
  <text x="300" y="360" text-anchor="middle" font-family="Arial,sans-serif" font-size="11" fill="#803A5A" opacity="0.4">600 x 400px</text>
</svg>