<svg xmlns="http://www.w3.org/2000/svg" width="600" height="400" viewBox="0 0 600 400">
  <rect width="600" height="400" fill="#F8EFF3"/>
  <rect x="2" y="2" width="596" height="396" fill="none" stroke="#803A5A" stroke-width="2" stroke-dasharray="8,4" rx="4" opacity="0.4"/>
  <ellipse cx="300" cy="140" rx="45" ry="55" fill="#803A5A" opacity="0.7"/>
  <rect x="285" y="185" width="30" height="25" rx="8" fill="#803A5A" opacity="0.7"/>
  <ellipse cx="300" cy="220" rx="80" ry="30" fill="#803A5A" opacity="0.6"/>
  <path d="M265 170 Q250 200 240 250 Q230 300 235 340" stroke="#803A5A" stroke-width="7" fill="none" stroke-linecap="round" opacity="0.6"/>
  <path d="M278 165 Q265 195 258 245 Q250 295 252 335" stroke="#803A5A" stroke-width="7" fill="none" stroke-linecap="round" opacity="0.6"/>
  <path d="M290 162 Q280 192 275 242 Q270 292 270 332" stroke="#803A5A" stroke-width="7" fill="none" stroke-linecap="round" opacity="0.6"/>
  <path d="M310 162 Q320 192 325 242 Q330 292 330 332" stroke="#803A5A" stroke-width="7" fill="none" stroke-linecap="round" opacity="0.6"/>
  <path d="M322 165 Q335 195 342 245 Q350 295 348 335" stroke="#803A5A" stroke-width="7" fill="none" stroke-linecap="round" opacity="0.6"/>
  <path d="M335 170 Q350 200 360 250 Q370 300 365 340" stroke="#803A5A" stroke-width="7" fill="none" stroke-linecap="round" opacity="0.6"/>
  <circle cx="235" cy="330" r="5" fill="#C49B6A" opacity="0.7"/>
  <circle cx="252" cy="325" r="5" fill="#C49B6A" opacity="0.7"/>
  <circle cx="348" cy="325" r="5" fill="#C49B6A" opacity="0.7"/>
  <circle cx="365" cy="330" r="5" fill="#C49B6A" opacity="0.7"/>
  <text x="300" y="310" text-anchor="middle" font-family="Arial,sans-serif" font-size="20" fill="#803A5A" font-weight="bold">FULANI BRAID</text>
  <text x="300" y="340" text-anchor="middle" font-family="Arial,sans-serif" font-size="12" fill="#803A5A" opacity="0.6">Substitua por foto real</text>
  <text x="300" y="360" text-anchor="middle" font-family="Arial,sans-serif" font-size="11" fill="#803A5A" opacity="0.4">600 x 400px</text>
</svg>