<svg xmlns="http://www.w3.org/2000/svg" width="600" height="400" viewBox="0 0 600 400">
  <rect width="600" height="400" fill="#F8EFF3"/>
  <rect x="2" y="2" width="596" height="396" fill="none" stroke="#803A5A" stroke-width="2" stroke-dasharray="8,4" rx="4" opacity="0.4"/>
  <ellipse cx="300" cy="150" rx="50" ry="60" fill="#803A5A" opacity="0.7"/>
  <path d="M260 130 Q280 120 300 125 Q320 120 340 130" stroke="#542439" stroke-width="4" fill="none" stroke-linecap="round" opacity="0.7"/>
  <path d="M255 140 Q278 130 300 135 Q322 130 345 140" stroke="#542439" stroke-width="4" fill="none" stroke-linecap="round" opacity="0.7"/>
  <path d="M252 150 Q276 140 300 145 Q324 140 348 150" stroke="#542439" stroke-width="4" fill="none" stroke-linecap="round" opacity="0.7"/>
  <path d="M250 160 Q275 150 300 155 Q325 150 350 160" stroke="#542439" stroke-width="4" fill="none" stroke-linecap="round" opacity="0.7"/>
  <path d="M252 170 Q276 160 300 165 Q324 160 348 170" stroke="#542439" stroke-width="4" fill="none" stroke-linecap="round" opacity="0.7"/>
  <path d="M255 180 Q278 170 300 175 Q322 170 345 180" stroke="#542439" stroke-width="4" fill="none" stroke-linecap="round" opacity="0.7"/>
  <rect x="280" y="200" width="40" height="25" rx="10" fill="#803A5A" opacity="0.7"/>
  <ellipse cx="300" cy="240" rx="75" ry="28" fill="#803A5A" opacity="0.6"/>
  <text x="300" y="310" text-anchor="middle" font-family="Arial,sans-serif" font-size="20" fill="#803A5A" font-weight="bold">NAGO</text>
  <text x="300" y="340" text-anchor="middle" font-family="Arial,sans-serif" font-size="12" fill="#803A5A" opacity="0.6">Substitua por foto real</text>
  <text x="300" y="360" text-anchor="middle" font-family="Arial,sans-serif" font-size="11" fill="#803A5A" opacity="0.4">600 x 400px</text>
</svg>