<svg xmlns="http://www.w3.org/2000/svg" width="600" height="400" viewBox="0 0 600 400">
  <rect width="600" height="400" fill="#F8EFF3"/>
  <rect x="2" y="2" width="596" height="396" fill="none" stroke="#803A5A" stroke-width="2" stroke-dasharray="8,4" rx="4" opacity="0.4"/>
  <ellipse cx="270" cy="160" rx="35" ry="42" fill="#803A5A" opacity="0.7"/>
  <rect x="258" y="195" width="24" height="20" rx="6" fill="#803A5A" opacity="0.7"/>
  <ellipse cx="270" cy="225" rx="55" ry="22" fill="#803A5A" opacity="0.6"/>
  <circle cx="255" cy="145" r="8" fill="#803A5A" opacity="0.7"/>
  <circle cx="270" cy="138" r="8" fill="#803A5A" opacity="0.7"/>
  <circle cx="285" cy="145" r="8" fill="#803A5A" opacity="0.7"/>
  <path d="M255 150 Q250 170 248 190" stroke="#803A5A" stroke-width="4" fill="none" stroke-linecap="round" opacity="0.6"/>
  <path d="M270 145 Q268 165 266 185" stroke="#803A5A" stroke-width="4" fill="none" stroke-linecap="round" opacity="0.6"/>
  <path d="M285 150 Q290 170 292 190" stroke="#803A5A" stroke-width="4" fill="none" stroke-linecap="round" opacity="0.6"/>
  <circle cx="248" cy="192" r="4" fill="#C49B6A" opacity="0.8"/>
  <circle cx="266" cy="187" r="4" fill="#C49B6A" opacity="0.8"/>
  <circle cx="292" cy="192" r="4" fill="#C49B6A" opacity="0.8"/>
  <ellipse cx="350" cy="140" rx="42" ry="50" fill="#803A5A" opacity="0.7"/>
  <rect x="336" y="180" width="28" height="22" rx="7" fill="#803A5A" opacity="0.7"/>
  <ellipse cx="350" cy="215" rx="70" ry="26" fill="#803A5A" opacity="0.6"/>
  <path d="M315 165 Q310 200 305 240 Q300 270 308 300" stroke="#803A5A" stroke-width="6" fill="none" stroke-linecap="round" opacity="0.6"/>
  <path d="M328 158 Q325 195 322 235 Q318 265 324 295" stroke="#803A5A" stroke-width="6" fill="none" stroke-linecap="round" opacity="0.6"/>
  <path d="M372 158 Q375 195 378 235 Q382 265 376 295" stroke="#803A5A" stroke-width="6" fill="none" stroke-linecap="round" opacity="0.6"/>
  <path d="M385 165 Q390 200 395 240 Q400 270 392 300" stroke="#803A5A" stroke-width="6" fill="none" stroke-linecap="round" opacity="0.6"/>
  <text x="300" y="310" text-anchor="middle" font-family="Arial,sans-serif" font-size="20" fill="#803A5A" font-weight="bold">PENTEADOS INFANTIS</text>
  <text x="300" y="340" text-anchor="middle" font-family="Arial,sans-serif" font-size="12" fill="#803A5A" opacity="0.6">Substitua por foto real</text>
  <text x="300" y="360" text-anchor="middle" font-family="Arial,sans-serif" font-size="11" fill="#803A5A" opacity="0.4">600 x 400px</text>
</svg>