<svg xmlns="http://www.w3.org/2000/svg" width="600" height="400" viewBox="0 0 600 400">
  <rect width="600" height="400" fill="#F8EFF3"/>
  <rect x="2" y="2" width="596" height="396" fill="none" stroke="#803A5A" stroke-width="2" stroke-dasharray="8,4" rx="4" opacity="0.4"/>
  <ellipse cx="300" cy="140" rx="45" ry="55" fill="#803A5A" opacity="0.7"/>
  <rect x="285" y="185" width="30" height="25" rx="8" fill="#803A5A" opacity="0.7"/>
  <ellipse cx="300" cy="220" rx="80" ry="30" fill="#803A5A" opacity="0.6"/>
  <path d="M265 175 Q260 220 255 270 Q250 310 258 340" stroke="#803A5A" stroke-width="8" fill="none" stroke-linecap="round" opacity="0.6"/>
  <path d="M278 168 Q275 215 272 265 Q268 305 274 335" stroke="#803A5A" stroke-width="8" fill="none" stroke-linecap="round" opacity="0.6"/>
  <path d="M290 164 Q288 212 286 262 Q284 302 288 332" stroke="#803A5A" stroke-width="8" fill="none" stroke-linecap="round" opacity="0.6"/>
  <path d="M300 162 Q300 210 300 260 Q300 300 300 330" stroke="#803A5A" stroke-width="8" fill="none" stroke-linecap="round" opacity="0.6"/>
  <path d="M310 162 Q312 210 314 260 Q316 300 312 330" stroke="#803A5A" stroke-width="8" fill="none" stroke-linecap="round" opacity="0.6"/>
  <path d="M322 168 Q325 215 328 265 Q332 305 326 335" stroke="#803A5A" stroke-width="8" fill="none" stroke-linecap="round" opacity="0.6"/>
  <path d="M335 175 Q340 220 345 270 Q350 310 342 340" stroke="#803A5A" stroke-width="8" fill="none" stroke-linecap="round" opacity="0.6"/>
  <text x="300" y="310" text-anchor="middle" font-family="Arial,sans-serif" font-size="20" fill="#803A5A" font-weight="bold">TWIST BRAID</text>
  <text x="300" y="340" text-anchor="middle" font-family="Arial,sans-serif" font-size="12" fill="#803A5A" opacity="0.6">Substitua por foto real</text>
  <text x="300" y="360" text-anchor="middle" font-family="Arial,sans-serif" font-size="11" fill="#803A5A" opacity="0.4">600 x 400px</text>
</svg>